<?xml version="1.0" encoding="UTF-8"?>
<svg width="33px" height="33px" viewBox="0 0 33 33" version="1.1" xmlns="http://www.w3.org/2000/svg" xmlns:xlink="http://www.w3.org/1999/xlink">
    <title>Combined Shape</title>
    <g id="Help-center-design" stroke="none" stroke-width="1" fill="none" fill-rule="evenodd">
        <g id="Validity-Help-Center-Homepage" transform="translate(-215.000000, -2242.000000)" fill="#FFFFFF">
            <g id="Group-6" transform="translate(192.000000, 2219.000000)">
                <path d="M51.1470854,23.0001289 C53.8231687,23.0001289 55.9998711,25.1770892 55.9998711,27.8531724 C55.9998711,30.5289979 53.8231687,32.7059582 51.1470854,32.7059582 L49.9446526,32.7059582 C48.4751271,32.7059582 47.0940309,33.2780419 46.0555662,34.3170222 L45.9640431,34.4085453 C44.9250628,35.44701 44.3529791,36.8281061 44.3529791,38.2976316 L44.3529791,39.5000645 C44.3529791,42.1761477 42.1760188,44.353108 39.4999355,44.353108 L38.2977606,44.353108 C36.8287507,44.353108 35.4473967,44.9251917 34.4086742,45.9639142 L34.3166355,46.0562107 C33.2781708,47.0944176 32.7060871,48.4755138 32.7060871,49.9447815 L32.7060871,51.1469565 C32.7060871,53.8230398 30.5291268,56 27.8530435,56 C25.1769602,56 23,53.8230398 23,51.1469565 C23,48.471131 25.1769602,46.2941707 27.8530435,46.2941707 L29.0554763,46.2941707 C30.5250019,46.2941707 31.906098,45.722087 32.9445627,44.6831067 L33.0360858,44.5915836 C34.0750661,43.5526033 34.6471498,42.171765 34.6471498,40.7024973 L34.6471498,39.5000645 C34.6471498,36.8239812 36.8241101,34.6470209 39.4999355,34.6470209 L40.7021105,34.6470209 C42.171636,34.6470209 43.5527322,34.0749372 44.5911969,33.0362147 L44.6832356,32.944176 C45.7219581,31.9054535 46.2940418,30.5243573 46.2940418,29.0553474 L46.2940418,27.8531724 C46.2940418,25.1770892 48.4710021,23.0001289 51.1470854,23.0001289 Z M51.1469565,34.6470209 C53.8230398,34.6470209 56,36.8239812 56,39.5000645 C56,42.1761477 53.8230398,44.353108 51.1469565,44.353108 L49.9447815,44.353108 C48.4755138,44.353108 47.0944176,44.9251917 46.0559529,45.9639142 L45.9644298,46.0551795 C44.9251917,47.0944176 44.353108,48.4757716 44.353108,49.9447815 L44.353108,51.1469565 C44.353108,53.8230398 42.1761477,56 39.5000645,56 C36.8239812,56 34.6470209,53.8230398 34.6470209,51.1469565 C34.6470209,48.471131 36.8239812,46.2941707 39.5000645,46.2941707 L40.7024973,46.2941707 C42.171765,46.2941707 43.5526033,45.722087 44.5915836,44.6831067 L44.6831067,44.5915836 C45.722087,43.5531189 46.2941707,42.1720228 46.2941707,40.7024973 L46.2941707,39.5000645 C46.2941707,36.8239812 48.471131,34.6470209 51.1469565,34.6470209 Z M39.4999355,23 C42.1760188,23 44.3529791,25.1769602 44.3529791,27.8530435 C44.3529791,30.5291268 42.1760188,32.7060871 39.4999355,32.7060871 L38.2975027,32.7060871 C36.8284929,32.7060871 35.4471389,33.2781708 34.4081586,34.3168933 L34.3166355,34.408932 C33.2781708,35.4471389 32.7060871,36.828235 32.7060871,38.2975027 L32.7060871,39.4999355 C32.7060871,42.1760188 30.5291268,44.3529791 27.8530435,44.3529791 C25.1769602,44.3529791 23,42.1760188 23,39.4999355 C23,36.8241101 25.1769602,34.6471498 27.8530435,34.6471498 L29.0552185,34.6471498 C30.524744,34.6471498 31.9055824,34.0750661 32.9443049,33.0360858 L33.0360858,32.9443049 C34.0750661,31.9053246 34.6471498,30.5244862 34.6471498,29.0552185 L34.6471498,27.8530435 C34.6471498,25.1769602 36.8241101,23 39.4999355,23 Z" id="Combined-Shape"></path>
            </g>
        </g>
    </g>
</svg>