<?xml version="1.0" encoding="UTF-8"?>
<svg xmlns="http://www.w3.org/2000/svg" version="1.1" viewBox="0 0 120 120">
  <!-- Generator: Adobe Illustrator 28.7.2, SVG Export Plug-In . SVG Version: 1.2.0 Build 154)  -->
  <g>
    <g id="Graphic_Element">
      <g>
        <path d="M60,74.3c-1.5,0-2.7,1.2-2.7,2.7v.4c0,1.5,1.2,2.7,2.7,2.7s2.7-1.2,2.7-2.7v-.4c0-1.5-1.2-2.7-2.7-2.7Z"/>
        <path d="M70.6,46.6c-.5-.9-1.2-1.6-2.1-2.3-.9-.7-2-1.3-3.3-1.7-1.3-.4-2.9-.6-4.6-.6s-3.7.2-5.1.7c-1.4.5-2.6,1.1-3.6,1.9-1,.8-1.8,1.7-2.3,2.7-.6,1-1,2-1.3,2.9-.3,1-.4,1.9-.4,2.7s0,.9,0,1.2c0,.3,0,.5.1.7h4.9c0-.3,0-.6,0-.8v-.7c0-.5,0-1.1.2-1.9.2-.8.5-1.5,1-2.3.5-.8,1.2-1.5,2.2-2,1-.5,2.3-.8,4-.8s2.7.2,3.6.7c.9.4,1.6,1,2,1.6.5.6.7,1.3.9,2,.1.7.2,1.2.2,1.7,0,1.2-.2,2.2-.7,3.1-.4.9-1,1.6-1.7,2.2-.7.6-1.5,1.3-2.2,1.9-.8.6-1.5,1.2-2.2,1.9-.7.7-1.3,1.5-1.7,2.5-.4.9-.7,2.1-.7,3.5v3.1h4.6v-2.5c0-1.1.2-2,.7-2.8.5-.7,1.1-1.4,1.9-2,.8-.6,1.6-1.2,2.4-1.8.8-.6,1.6-1.3,2.3-2.2.7-.8,1.4-1.8,1.8-3,.5-1.2.7-2.7.7-4.4s-.1-1.6-.4-2.5c-.2-.9-.6-1.7-1.1-2.6Z"/>
        <path d="M94.7,14.3H25.3c-6,0-10.9,4.9-10.9,10.9v69.5c0,6,4.9,10.9,10.9,10.9h69.5c6,0,10.9-4.9,10.9-10.9V25.3c0-6-4.9-10.9-10.9-10.9ZM60,89c-16,0-29-13-29-29s13-29,29-29,29,13,29,29-13,29-29,29Z"/>
      </g>
    </g>
  </g>
</svg>