<?xml version="1.0" encoding="utf-8"?>
<!-- Generator: Adobe Illustrator 26.0.3, SVG Export Plug-In . SVG Version: 6.00 Build 0)  -->
<svg version="1.0" id="Layer_1" xmlns="http://www.w3.org/2000/svg" xmlns:xlink="http://www.w3.org/1999/xlink" x="0px" y="0px"
	 viewBox="0 0 866.8 591.1" style="enable-background:new 0 0 866.8 591.1;" xml:space="preserve">
<style type="text/css">
	.st0{fill:#ED3237;}
</style>
<g>
	<g>
		<path class="st0" d="M439.2,338.6c-22,0-42.2-18.3-42.2-43c0-23.9,19.5-42,41.3-42c9.1,0,16.8,2.9,22.9,8.9v-7.3h16.7v30.1h-19.4
			c-3.9-7.2-11.4-11.6-19.5-11.4c-11.9,0-21.5,8.9-21.5,21.6c0,12.4,9.6,22.9,22,22.9c8.1,0,15.4-4.6,19-11.8h22
			C474.3,327.2,456,338.6,439.2,338.6z"/>
		<path class="st0" d="M533.3,336.9v-5.2c-4,4.7-9.9,7.2-17,7.2c-17.2,0-31-15-31-32.5c0-18.3,14.5-33,31.7-33
			c6.4-0.2,12.5,2.7,16.2,7.9v-6h24.7v16.7h-6.5v28.2h6.5v16.8L533.3,336.9z M518.8,291.2c-8.3,0-15,6.8-15,15.1
			c0,8.1,6.5,14.7,14.6,14.7c0.1,0,0.2,0,0.2,0c8.2-0.1,14.8-6.8,14.7-15.1c0.1-8.1-6.4-14.7-14.4-14.7
			C518.9,291.2,518.8,291.2,518.8,291.2z"/>
		<path class="st0" d="M598,338.9c-18-0.2-32.4-14.9-32.3-32.8c0-18.3,14.5-32.7,30.9-32.7c5.7,0,11.1,2.3,14.9,6.5v-4.6h15.2v22.2
			h-17c-2.9-3.8-6.5-6.3-11.8-6.3c-8,0-13.9,6.8-13.9,15c-0.2,8,6.1,14.6,14.1,14.9c0.2,0,0.3,0,0.5,0c4.3,0.2,8.3-2,10.5-5.8H629
			C625,329.1,612.4,338.7,598,338.9z"/>
		<path class="st0" d="M641.6,336.9v-45h-8.5v-16.6h8.5v-20h18.2v20h8.5V292h-8.5v28.2h8.8v16.8H641.6z"/>
		<path class="st0" d="M719.7,336.9v-6.3c-4.1,5.2-11,7.5-17.2,7.5c-11.6,0-21.6-8.5-21.6-23.4V292h-6.6v-16.7h24.7v34.3
			c0,8.1,3.5,11.9,9.3,11.9c6.9,0,9.8-4.3,9.8-12.6v-17h-6.6v-16.6h25.3v44.8h6.5V337L719.7,336.9L719.7,336.9z"/>
		<path class="st0" d="M779.7,338.3c-8.5,0-12.5-2.7-15.7-5.2v3.9h-12.5v-17.7h17.4c0.7,4.2,3.1,6,7.7,6c3.9,0,6.2-1.9,6.2-4.9
			c0-4.3-4.3-5.4-16.5-8.7c-10.1-2.7-16.2-9.3-16.2-18.3c0-10.8,8.9-19.5,22.4-19.5c8.1,0,11.1,2.9,13.3,4.9v-3.8h12v17.8h-16.4
			c-0.4-3.5-2.5-5.5-6.2-5.5c-3.3,0-5.8,1.8-5.8,4.5c0,9.8,32.7,3.1,32.7,26.7C801.9,329.5,793.5,338.3,779.7,338.3z"/>
	</g>
	<g>
		<path class="st0" d="M203.2,434c-76.3,0-138.4-62.1-138.4-138.5s62.2-138.4,138.4-138.4s138.4,62.1,138.4,138.4
			C341.6,372,279.6,433.9,203.2,434z M203.2,167.2c-70.9,0-128.4,57.5-128.4,128.4c0,70.9,57.5,128.4,128.4,128.4
			c70.9,0,128.4-57.5,128.4-128.4C331.6,224.8,274,167.1,203.2,167.2L203.2,167.2z"/>
		<path class="st0" d="M200.5,334.5c-36,0-65.2-29.2-65.1-65.2c0-36,29.2-65.2,65.2-65.1c30.3,0,56.6,20.9,63.5,50.4l-7,1.7
			c-7.3-31.2-38.4-50.5-69.6-43.3s-50.5,38.4-43.3,69.6c4.6,19.7,19.2,35.6,38.4,41.9l-1.1,3.3l1.1-3.3c5.8,1.9,11.8,2.8,17.9,2.8
			V334.5z"/>
		<g>
			<path class="st0" d="M146.3,383.3c-8.9,0,17.9-6.2,29.3-5.6c15.7,0.9,36.6,2.5,56,0l-0.1-32.4c0.6-2-14.8-5.1-17.8-6.1l-1.7-0.8
				l-1.6-0.8l-1.5-0.9l-1.4-1l-1.2-1.1l-1-1.2l-0.9-1.4l-0.6-1.4l-0.4-1.6l-0.1-41.8v-0.5l0.1-1.3l0.4-1.2l0.6-1.1l0.8-0.9l1-0.8
				l1.1-0.6l1.2-0.4l1.2-0.1l1.3,0.1l1.2,0.4l1.1,0.6l0.9,0.8l0.8,0.9l0.6,1.1l0.4,1.2l0.1,1.3v39.5l0.8,0.4
				c4.5,2.2,10.5,3.4,15.2,4.9v-84.3l0.1-1.2l0.4-1.2l0.6-1.1l0.8-0.9l0.9-0.8l1.1-0.6l1.2-0.4l1.3-0.1l1.2,0.1l1.2,0.4l1.1,0.6
				l0.9,0.8l0.8,0.9l0.6,1.1l0.4,1.2l0.1,1.2v50.7l1.8-0.4l1.2-0.3l1.2-0.3l1.1-0.4l1-0.4l0.9-0.4l0.9-0.3l0.8-0.4l0.7-0.3l0.8-0.4
				v-25.8l0.1-1.3l0.4-1.2l0.6-1.1l0.8-0.9l0.9-0.8l1.1-0.6l1.2-0.4l1.3-0.2l1.3,0.2l1.2,0.4l1.1,0.6l0.9,0.8l0.8,0.9l0.6,1.1
				l0.4,1.2l0.1,1.3v26.9l-0.1,1.7l-0.4,1.6l-0.6,1.4l-0.9,1.4l-1,1.2l-1.2,1.1l-1.4,1l-1.5,0.9l-1.6,0.8l-1.7,0.8l-1.8,0.6
				l-1.9,0.6l-1.9,0.5l-1.9,0.5l-1.9,0.4l-1.9,0.4l-1.2,0.1v1.3l0.4,66c8.4,1.9,16,1.1,22.6,0.4v4.7L146.3,383.3z"/>
			<path class="st0" d="M146.2,384c-1.5,0-2.1-0.1-2.4-0.6l-0.2-0.4l0.2-0.5c1.2-1.9,22.8-6.1,31.7-5.6c1.7,0.1,3.3,0.2,5,0.3
				c14.8,0.9,33.1,1.9,50.2-0.2l-0.1-31.9c-0.9-1.1-8.8-3.2-12.6-4.1c-2.2-0.6-3.9-1-4.8-1.3l-1.8-0.8l-1.6-0.8l-1.6-0.9l-1.4-1.1
				l-1.3-1.1l-1.1-1.2l-0.9-1.4l-0.6-1.6l-0.4-1.9l-0.2-42.3l0.1-1.5l0.4-1.2l0.6-1.2l0.9-1.1l1-0.8l1.1-0.6l1.5-0.4l1.2-0.1
				l1.6,0.1l1.2,0.4l1.2,0.6l1,0.9l1,1.2l0.6,1.1l0.4,1.5l0.1,1.3v39l0.4,0.2c3.2,1.4,6.5,2.6,9.9,3.4c1.4,0.4,2.8,0.8,4.2,1.2
				v-83.1l0.1-1.4l0.4-1.2l0.7-1.4l0.8-0.9l1-0.9l1.2-0.6l1.5-0.4l1.3-0.1l1.5,0.1l1.2,0.4l1.2,0.6l1,0.9l1,1.1l0.6,1.1l0.4,1.5
				l0.1,1.2v49.9l3.3-0.7l3.8-1.2l1.8-0.8v-25.3l0.1-1.5l0.4-1.2l0.6-1.2l0.9-1l1-0.9l1.2-0.6l1.5-0.4l1.3-0.2l1.6,0.2l1.2,0.4
				l1.2,0.6l1,0.9l0.9,1l0.6,1.2l0.4,1.5l0.1,1.3v27l-0.1,1.9l-0.4,1.6l-0.6,1.5l-0.9,1.4l-1.1,1.3l-1.3,1.2l-1.2,1l-1.6,0.9
				l-1.6,0.9l-1.8,0.8l-1.8,0.7l-1.9,0.6l-3.8,1l-4.4,0.8v0.7l0.4,65.3c7.8,1.6,14.7,1.1,21.8,0.2l0.8-0.1v6.2h-0.7L146.2,384
				L146.2,384z M173.9,378.3c-8.3,0-21.8,2.7-26.9,4.2l119.8-0.4V379c-6.8,0.8-14.1,1.4-22-0.4l-0.6-0.2l-0.4-68.4l1.9-0.2l3.7-0.7
				l3.7-0.9l1.9-0.6l1.7-0.6l1.7-0.7l1.6-0.8l1.4-0.9l1.3-1l1.2-1.1l0.9-1.1l0.8-1.3l0.5-1.4l0.4-1.4l0.1-1.6v-26.9l-0.1-1.2
				l-0.4-1.1l-0.5-0.9l-0.6-0.8l-0.8-0.6l-0.9-0.5l-1-0.3l-1.2-0.1l-1.1,0.1l-1.1,0.4l-0.9,0.5l-0.8,0.6l-0.6,0.8l-0.5,0.9l-0.3,1
				l-0.1,1.2V295l-2.7,1.3l-4,1.3l-5.1,1.2v-51.6l-0.1-1.1l-0.4-1.1l-0.5-0.9l-0.8-0.9l-0.9-0.6l-0.9-0.5l-1-0.3l-1.1-0.1l-1.1,0.1
				l-1.1,0.4l-0.9,0.5l-0.8,0.6l-0.6,0.8l-0.6,1l-0.3,1l-0.1,1.1v85.1l-0.9-0.3c-1.6-0.5-3.2-0.9-5-1.4c-3.5-0.8-6.9-2-10.2-3.5
				l-1.2-0.7v-39.9l-0.1-1.2l-0.4-1.1l-0.5-0.9l-0.8-0.9l-0.9-0.6l-0.9-0.5l-1-0.3l-1.2-0.1l-1,0.1l-1.1,0.4l-0.9,0.5l-0.8,0.6
				l-0.7,0.9l-0.5,0.9l-0.3,1l-0.1,1.2l0.1,42l0.4,1.5l0.6,1.4l0.8,1.2l0.9,1.1l1.1,1.1l1.3,1l1.4,0.9l1.6,0.8l1.7,0.7
				c0.7,0.3,2.5,0.7,4.6,1.2c8.6,2.1,12.8,3.5,13.6,4.9c0.1,0.2,0.2,0.5,0.1,0.8l0.1,33l-0.6,0.1c-17.4,2.2-36.1,1.1-51.1,0.3
				c-1.7-0.1-3.4-0.2-5-0.3C175.2,378.3,174.6,378.3,173.9,378.3L173.9,378.3z"/>
		</g>
		<path class="st0" d="M312.2,405.4c1.6,0,3.2,0.4,4.7,1.2c1.5,0.8,2.7,2,3.5,3.5c0.8,1.4,1.3,3.1,1.3,4.7c0,1.7-0.4,3.3-1.2,4.7
			c-0.8,1.5-2,2.7-3.5,3.5c-1.4,0.8-3.1,1.2-4.7,1.2c-1.7,0-3.3-0.4-4.8-1.2c-4.5-2.6-6.1-8.4-3.5-13c0,0,0,0,0,0
			c0.8-1.5,2-2.7,3.5-3.5C309,405.8,310.6,405.4,312.2,405.4z M312.2,407c-1.4,0-2.7,0.4-3.9,1c-1.3,0.7-2.3,1.7-3,3
			c-1.4,2.4-1.4,5.5,0,7.9c1.4,2.5,4.1,4,6.9,4c1.4,0,2.8-0.4,4-1.1c1.2-0.7,2.3-1.7,3-3c2.2-3.8,0.8-8.7-3-10.9
			C315,407.3,313.6,407,312.2,407L312.2,407z M308,420.1v-10.2h3.5c0.9-0.1,1.7,0,2.6,0.3c0.5,0.2,1,0.6,1.3,1
			c0.3,0.4,0.5,1,0.5,1.5c0,0.7-0.3,1.4-0.8,1.9c-0.5,0.6-1.3,0.9-2.1,0.9c0.3,0.1,0.6,0.3,0.9,0.6c0.6,0.6,1.1,1.3,1.5,2l1.2,2h-2
			l-0.9-1.6c-0.4-0.9-1-1.7-1.7-2.4c-0.4-0.3-0.8-0.4-1.3-0.4h-0.9v4.3L308,420.1L308,420.1z M309.7,414.4h2
			c0.7,0.1,1.4-0.1,1.9-0.4c0.3-0.3,0.5-0.7,0.5-1.1c0-0.3-0.1-0.6-0.2-0.8c-0.2-0.2-0.4-0.4-0.7-0.5c-0.5-0.1-1.1-0.2-1.6-0.1h-1.9
			L309.7,414.4L309.7,414.4z"/>
	</g>
</g>
</svg>
