<svg version="1.2" xmlns="http://www.w3.org/2000/svg" viewBox="0 0 1526 574" width="1526" height="574">
	<title>logo (24)-svg</title>
	<style>
		.s0 { fill: #ed3237 } 
	</style>
	<g id="Layer">
		<path id="Layer" class="s0" d="m774.8 376.7c-45.6 0-87.3-38-87.3-89.1 0-49.5 40.5-86.8 85.5-86.8 18.9 0 34.8 6 47.3 18.4v-15.2h34.5v62.3h-40.3c-8.9-16-24.4-23.6-40.4-23.6-24.7 0-44.5 18.4-44.5 44.7 0 25.8 19.9 47.3 45.5 47.3 16.4 0 31.2-8.7 39.5-24.4h45.5c-12.6 42.7-50.5 66.4-85.3 66.4z"/>
		<path id="Layer" fill-rule="evenodd" class="s0" d="m969.6 373.1v-10.9c-8.3 9.7-20.4 14.9-35.1 14.9-35.5 0-64.1-31.1-64.1-67.2 0-37.9 30-68.4 65.6-68.4 14.4 0 25.3 5.5 33.6 16.4v-12.4h51.1v34.5h-13.5v58.3h13.5v34.8zm0.2-63.9c0-17-13.7-30.8-30.7-30.8-16.9 0-30.6 13.8-30.6 30.8 0 17.1 13.7 30.9 30.6 30.9 17 0 30.7-13.8 30.7-30.9z"/>
		<path id="Layer" class="s0" d="m1103.4 377.1c-35.7 0-66.9-29.6-66.9-67.9 0-38 30-67.7 63.9-67.7 12.1 0 22 4.5 30.8 13.5v-9.5h31.5v46h-35.1c-6.1-7.9-13.5-13.1-24.4-13.1-16.5 0-28.8 14-28.8 31.1 0 17.5 13.2 30.7 30 30.7 9.3 0 17.3-4 21.7-11.9h41.7c-9.4 31.3-37.2 48.8-64.4 48.8z"/>
		<path id="Layer" class="s0" d="m1193.8 373.1v-93.1h-17.5v-34.5h17.5v-41.5h37.6v41.5h17.6v34.5h-17.6v58.3h18.3v34.8z"/>
		<path id="Layer" class="s0" d="m1355.4 373.1v-13.1c-8.5 10.7-22.7 15.6-35.5 15.6-24 0-44.8-17.5-44.8-48.4v-47.2h-13.5v-34.5h51.1v71.1c0 16.8 7.2 24.7 19.2 24.7 14.3 0 20.4-8.9 20.4-26v-35.1h-13.7v-34.5h52.4v92.8h13.5v34.7h-49.1z"/>
		<path id="Layer" class="s0" d="m1479.4 375.9c-17.5 0-25.9-5.5-32.4-10.8v8h-25.9v-36.7h36c1.5 8.7 6.4 12.5 15.9 12.5 8.1 0 12.8-4.1 12.8-10.2 0-8.9-8.9-11.1-34-17.9-20.9-5.7-33.6-19.2-33.6-38 0-22.4 18.4-40.3 46.4-40.3 16.8 0 22.8 6 27.5 10.1v-7.8h24.8v36.8h-34.1c-0.7-7.2-5.2-11.3-12.7-11.3-6.9 0-12.1 3.8-12.1 9.3 0 20.3 67.7 6.4 67.7 55.1-0.2 22.9-17.7 41.2-46.3 41.2z"/>
	</g>
	<g id="Layer">
		<path id="Layer" fill-rule="evenodd" class="s0" d="m286.5 574c-158.4 0-286.5-128.1-286.5-286.6 0-158.4 128.1-286.5 286.5-286.5 158.5 0 286.5 128.1 286.5 286.5 0 158.5-128 286.6-286.5 286.6zm265.7-286.6c0-146.9-118.8-265.7-265.7-265.7-146.9 0-265.7 118.8-265.7 265.7 0 147 118.8 265.8 265.7 265.8 146.9 0 265.7-118.8 265.7-265.8z"/>
	</g>
	<g id="Layer">
		<path id="Layer" class="s0" d="m280.9 368.2c-14.3 0-28.3-2.2-41.7-6.6-55.7-18.1-93.2-69.5-93.2-128.3 0-74.3 60.5-134.9 134.9-134.9 63.2 0 117.1 43 131.4 104.4l-14.6 3.5c-12.6-54.8-60.6-92.8-116.8-92.8-66.2 0-119.9 53.8-119.9 119.8 0 52.2 33.3 98 82.8 114.1l-2.2 6.8 2.2-6.8c11.9 3.8 24.4 5.8 37.1 5.8z"/>
	</g>
	<g id="Layer">
		<path id="Layer" fill-rule="evenodd" class="s0" d="m168.8 469c-18.5 0 37-12.9 60.6-11.6 32.4 1.8 75.9 5.1 115.8 0l-0.1-67.1c1.3-4.1-30.6-10.5-36.9-12.6l-3.5-1.6-3.5-1.7-3.1-1.9-2.8-2.1-2.5-2.4-2.1-2.5-1.8-2.8-1.2-3-0.7-3.3-0.3-86.4v-1l0.3-2.7 0.7-2.5 1.2-2.2 1.6-2 2.1-1.6 2.2-1.2 2.6-0.7 2.5-0.2 2.7 0.2 2.5 0.7 2.2 1.2 2 1.6 1.6 2 1.2 2.2 0.7 2.5 0.2 2.7v51.9 27.8 1.9l1.6 0.9c9.4 4.6 21.7 7 31.4 10.1v-3.8-170.6l0.3-2.5 0.7-2.5 1.2-2.3 1.7-1.9 1.9-1.6 2.2-1.2 2.5-0.8 2.7-0.1 2.6 0.1 2.5 0.8 2.2 1.2 1.9 1.6 1.7 1.9 1.2 2.3 0.7 2.5 0.3 2.5v101.1 3.9l3.7-0.7 2.6-0.6 2.5-0.6 2.2-0.8 2.1-0.7 1.9-0.8 1.8-0.6 1.6-0.7 1.5-0.6 1.7-0.9v-1.9-51.5l0.3-2.6 0.7-2.6 1.2-2.2 1.6-1.9 2-1.7 2.2-1.2 2.5-0.7 2.7-0.3 2.7 0.3 2.5 0.7 2.2 1.2 2 1.7 1.6 1.9 1.2 2.2 0.7 2.6 0.2 2.6v55.6l-0.2 3.5-0.9 3.2-1.1 3-1.8 2.8-2.1 2.6-2.5 2.3-2.9 2.1-3.1 2-3.4 1.6-3.6 1.6-3.7 1.4-3.9 1.2-3.8 1-3.9 1-3.9 0.8-3.8 0.7-2.5 0.3v2.7l0.7 136.5c17.4 3.9 33.2 2.4 46.7 0.8v9.8z"/>
		<path id="Layer" fill-rule="evenodd" class="s0" d="m168.6 470.5c-3.1 0-4.3-0.3-4.9-1.3l-0.4-0.8 0.4-1c2.5-4 47.3-12.7 65.6-11.6 3.4 0.1 6.8 0.4 10.4 0.6 30.6 1.8 68.5 3.8 103.9-0.5l-0.1-66c-1.8-2.4-18.2-6.5-26.1-8.5-4.4-1.2-8-2.1-9.8-2.6l-3.7-1.7-3.4-1.6-3.3-2-3-2.2-2.6-2.4-2.3-2.5-1.9-3-1.3-3.2-0.9-3.9-0.3-87.4 0.3-3.2 0.7-2.5 1.4-2.5 1.9-2.4 2.1-1.6 2.4-1.4 3.1-0.9 2.5-0.3 3.3 0.3 2.5 0.8 2.5 1.3 2.1 1.8 2.1 2.4 1.2 2.2 0.9 3.1 0.3 2.7v80.8l0.9 0.4c5.9 3 13.3 5.1 20.5 7 3 0.7 5.8 1.6 8.6 2.4v-172.1l0.3-3 0.7-2.5 1.5-2.8 1.7-1.9 2.1-1.8 2.5-1.4 3.1-0.9 2.7-0.3 3.1 0.3 2.5 0.8 2.6 1.3 2 1.8 2.1 2.4 1.2 2.2 0.9 3.1 0.3 2.6v103.2l6.8-1.5 7.9-2.5 3.7-1.7v-52.3l0.3-3.1 0.8-2.6 1.3-2.5 1.8-2.1 2.1-1.8 2.5-1.3 3.1-0.9 2.7-0.3 3.3 0.3 2.5 0.7 2.5 1.4 2.1 1.8 1.8 2 1.3 2.6 0.9 3.1 0.2 2.7v55.7l-0.3 3.9-0.9 3.3-1.4 3.1-1.9 3-2.2 2.7-2.7 2.5-2.8 2.2-3.3 1.9-3.4 1.8-3.7 1.7-3.7 1.3-4.1 1.2-7.8 2.1-9.3 1.6v1.3l0.8 135.2c16.2 3.4 30.5 2.3 45 0.5l1.7-0.2v13h-1.5zm57.2-11.8c-17.1 0-45.2 5.5-55.6 8.8l248-0.8v-6.5c-13.9 1.6-29.1 2.8-45.5-0.9l-1.2-0.3-0.7-141.6 3.9-0.4 7.7-1.5 7.7-1.9 3.9-1.2 3.6-1.4 3.4-1.4 3.3-1.7 2.9-1.8 2.7-2 2.5-2.3 2-2.4 1.6-2.6 1-2.9 0.8-2.9 0.1-3.3v-55.6l-0.1-2.4-0.8-2.2-1-2-1.3-1.6-1.7-1.3-1.9-1.1-2.1-0.6-2.5-0.1-2.2 0.1-2.4 0.8-2 1-1.6 1.4-1.3 1.6-1.1 1.9-0.6 2.1-0.1 2.5v54.2l-5.7 2.6-8.1 2.7-10.6 2.4v-106.8l-0.1-2.2-0.8-2.2-1-1.8-1.7-1.8-1.7-1.3-2-1.1-2.1-0.6-2.3-0.1-2.3 0.1-2.2 0.8-1.9 1-1.7 1.3-1.3 1.7-1.2 2.1-0.6 2-0.1 2.4v176.2l-2-0.6c-3.2-1-6.7-1.9-10.4-2.9-7.3-2-14.9-4-21.1-7.2l-2.5-1.3v-82.5l-0.2-2.4-0.7-2.3-1.1-1.7-1.6-1.8-1.8-1.4-1.9-1-2.1-0.6-2.5-0.1-2.1 0.1-2.4 0.7-1.9 1.1-1.6 1.3-1.5 1.8-1.1 1.9-0.6 2.1-0.1 2.6 0.3 86.9 0.7 3.2 1.2 2.8 1.6 2.5 2 2.3 2.4 2.2 2.6 2.1 3 1.8 3.3 1.6 3.5 1.5c1.5 0.6 5.3 1.5 9.6 2.5 17.7 4.5 26.4 7.1 28.1 10.1 0.3 0.6 0.3 1.2 0.3 1.6l0.1 68.3-1.3 0.2c-36 4.6-74.7 2.3-105.7 0.5-3.6-0.1-7-0.4-10.5-0.5-1.6-0.5-2.8-0.5-4-0.5z"/>
	</g>
	<g id="Layer">
		<g id="Layer">
			<path id="Layer" fill-rule="evenodd" class="s0" d="m512.1 514.8c3.2 0 6.5 0.9 9.6 2.5 3.2 1.7 5.7 4.2 7.3 7.3q2.7 4.7 2.7 9.8c0 3.5-0.9 6.7-2.5 9.9-1.8 3.1-4.2 5.5-7.3 7.2-3.1 1.8-6.4 2.6-9.8 2.6-3.4 0-6.7-0.9-9.8-2.6-3.2-1.7-5.5-4.1-7.3-7.2-1.8-3.2-2.6-6.4-2.6-9.9q0-5.1 2.7-9.8c1.8-3.1 4.2-5.5 7.3-7.3 3.1-1.6 6.4-2.5 9.7-2.5zm0 3.3c-2.9 0-5.5 0.7-8.1 2.1-2.6 1.3-4.6 3.4-6.1 6.1-1.4 2.6-2.2 5.3-2.2 8.1 0 2.9 0.8 5.5 2.2 8.2 1.5 2.6 3.5 4.6 6.1 6.1 2.6 1.5 5.4 2.3 8.2 2.3 2.8 0 5.5-0.8 8.2-2.3 2.5-1.5 4.6-3.4 6.1-6.1 1.5-2.5 2.2-5.3 2.2-8.2 0-2.8-0.7-5.6-2.2-8.1-1.5-2.7-3.6-4.6-6.1-6.1-3-1.4-5.7-2.1-8.3-2.1zm-8.7 6.1h7.3c2.6 0 4.3 0.1 5.4 0.6 1 0.4 1.9 1 2.7 2.1 0.6 1 1 1.9 1 3.1 0 1.5-0.6 2.8-1.6 4-1.1 1.2-2.6 1.8-4.3 1.9 0.7 0.3 1.3 0.8 1.7 1.2 0.9 0.9 2 2.3 3.2 4.2l2.5 4.1h-4.2l-1.9-3.2q-2.2-4-3.6-4.9c-0.6-0.5-1.5-0.8-2.6-0.8h-2v8.9h-3.6zm3.5 9.3h4.1q2.9 0 4-0.9c0.8-0.6 1.1-1.4 1.1-2.4 0-0.6-0.2-1.2-0.5-1.6-0.3-0.5-0.9-0.9-1.4-1.1-0.6-0.3-1.8-0.3-3.5-0.3h-3.8z"/>
		</g>
	</g>
</svg>