<?xml version="1.0" encoding="utf-8"?>
<svg xmlns="http://www.w3.org/2000/svg" width="844.7" height="527.399" viewBox="0 0 844.7 527.399">
  <g id="questions" transform="translate(0 -67.9)">
    <circle id="Ellipse_2149" data-name="Ellipse 2149" cx="46" cy="46" r="46" transform="translate(385.4 502)" fill="#572ce8"/>
    <circle id="Ellipse_2150" data-name="Ellipse 2150" cx="24" cy="24" r="24" transform="translate(387.4 366)" fill="#f2f2f2"/>
    <circle id="Ellipse_2151" data-name="Ellipse 2151" cx="24" cy="24" r="24" transform="translate(559.4 416)" fill="#f2f2f2"/>
    <path id="Tracé_14885" data-name="Tracé 14885" d="M426.5,68c-71.9.5-130.8,58.9-131.8,130.8v11.4a33.715,33.715,0,0,0,33.7,33.7h0a33.822,33.822,0,0,0,33.8-33.8h0v-7.2a64,64,0,1,1,98.5,53.9h0s-48,30.9-62.7,73.3h0a93.435,93.435,0,0,0-3.9,26.8c0,3.7.2,36.3.6,62.8a34.766,34.766,0,0,0,34.8,34.2h0a34.825,34.825,0,0,0,34.8-34.8v-.2c-.1-24.2-.2-52.4-.2-54.5,0-26,25.1-52,45.8-68.9,23.8-19.5,40.9-46,47.7-76a85.842,85.842,0,0,0,2.5-18.8A132.77,132.77,0,0,0,427.4,67.9,2.767,2.767,0,0,1,426.5,68Z" fill="#572ce8"/>
    <path id="Tracé_14886" data-name="Tracé 14886" d="M843.5,595.3H1.2a1.2,1.2,0,0,1,0-2.4H843.5a1.155,1.155,0,0,1,1.2,1.2A1.29,1.29,0,0,1,843.5,595.3Z" fill="#3f3d56"/>
    <circle id="Ellipse_2152" data-name="Ellipse 2152" cx="30" cy="30" r="30" transform="translate(598.4 213)" fill="#2f2e41"/>
    <path id="Tracé_14887" data-name="Tracé 14887" d="M573,582.1H560.8l-5.9-47.3H573Z" fill="#a0616a"/>
    <path id="Tracé_14888" data-name="Tracé 14888" d="M552,578.6h23.6v14.9H537.1A14.937,14.937,0,0,1,552,578.6Z" fill="#2f2e41"/>
    <path id="Tracé_14889" data-name="Tracé 14889" d="M668,582.1H655.8l-5.9-47.3H668Z" fill="#a0616a"/>
    <path id="Tracé_14890" data-name="Tracé 14890" d="M647,578.6h23.6v14.9H632.1A14.937,14.937,0,0,1,647,578.6Z" fill="#2f2e41"/>
    <circle id="Ellipse_2153" data-name="Ellipse 2153" cx="24.6" cy="24.6" r="24.6" transform="translate(599.3 224)" fill="#a0616a"/>
    <path id="Tracé_14891" data-name="Tracé 14891" d="M638.5,352.4l11-25.2a31.39,31.39,0,0,0-6.9-35.6,39.964,39.964,0,0,0-3.1-2.7,30.954,30.954,0,0,0-32.4-3.6c-.4.2-.7.3-1.1.5a12.808,12.808,0,0,0-2,1.1,31.667,31.667,0,0,0-15.7,23.9l-4.9,40.6c-1.2,3.2-44.7,118.4-29.5,206.3a4.568,4.568,0,0,0,3.8,3.7l15.4,2.1a4.519,4.519,0,0,0,5-3.5L604,436.6a3.489,3.489,0,0,1,4.1-2.7,3.607,3.607,0,0,1,2.7,2.5l36.6,129.8a4.5,4.5,0,0,0,4.3,3.3,2.77,2.77,0,0,0,.9-.1l18.8-3.6A4.41,4.41,0,0,0,675,561C672.4,530,657.6,375.2,638.5,352.4Z" fill="#2f2e41"/>
    <path id="Tracé_14892" data-name="Tracé 14892" d="M528.4,269a10.168,10.168,0,0,0,8.8,11.2,5.437,5.437,0,0,0,1.8,0l13.7,33,10.4-15.4-14.6-29a10.191,10.191,0,0,0-11.3-8.8,10.5,10.5,0,0,0-8.8,9Z" fill="#a0616a"/>
    <path id="Tracé_14893" data-name="Tracé 14893" d="M622.5,385.6a10.1,10.1,0,0,0,8.8-11.2,8.466,8.466,0,0,0-.4-1.7l28.9-21-17.4-6.5-24.8,21a10.1,10.1,0,0,0-5.9,13,10.368,10.368,0,0,0,10.8,6.4Z" fill="#a0616a"/>
    <path id="Tracé_14894" data-name="Tracé 14894" d="M575.4,335.2a18.414,18.414,0,0,1-3.3-.3,16.173,16.173,0,0,1-11.9-9.6L541,301.8a4.451,4.451,0,0,1,.6-6.3c.2-.1.3-.2.5-.3l13.7-8.5a4.451,4.451,0,0,1,6.2,1.5h0l13.6,22.3,26-19.2a9.738,9.738,0,0,1,11.3,15.6L587,330.5A16.949,16.949,0,0,1,575.4,335.2Z" fill="#2f2e41"/>
    <path id="Tracé_14895" data-name="Tracé 14895" d="M645.6,370.5h0a4.272,4.272,0,0,1-3.4-1.6L630,354.7a4.449,4.449,0,0,1,.5-6.3c.1-.1.3-.2.4-.3l22.8-15.2-20.6-24.8a9.625,9.625,0,0,1,3.3-13.3A9.807,9.807,0,0,1,648,296l25.1,24.5a16.561,16.561,0,0,1,1.1,23.3,15.118,15.118,0,0,1-4.7,3.6L649,369.2A5.546,5.546,0,0,1,645.6,370.5Z" fill="#2f2e41"/>
    <path id="Tracé_14896" data-name="Tracé 14896" d="M617.6,318.2H617a4.4,4.4,0,0,1-3.7-3.1l-9.1-28a2.972,2.972,0,0,1,1.6-3.7l.3-.1c.3-.1.5-.3.8-.4a32.087,32.087,0,0,1,13.6-3,31.034,31.034,0,0,1,17.2,5.2,3.175,3.175,0,0,1,.9,4.3l-17.2,26.9A4.73,4.73,0,0,1,617.6,318.2Z" fill="#e6e6e6"/>
    <circle id="Ellipse_2154" data-name="Ellipse 2154" cx="9.8" cy="9.8" r="9.8" transform="translate(642.3 210)" fill="#2f2e41"/>
    <path id="Tracé_14897" data-name="Tracé 14897" d="M618.4,209h0a25.948,25.948,0,0,0-26,26v11H606l6.5-11,1.9,11h41.1l-11-11A26.1,26.1,0,0,0,618.4,209Z" fill="#2f2e41"/>
    <path id="Tracé_14898" data-name="Tracé 14898" d="M657.1,213.1a15.145,15.145,0,0,1,16.5-10.4c6.3,1,11.2,6.1,14.1,11.7s4.3,11.9,6.3,17.9,4.8,12.1,9.8,16,12.7,5,17.6.9a20.125,20.125,0,0,1-37.5,7.2c-2.6-4.6-3.3-10-4-15.3s-1.8-10.6-4.9-14.9-8.9-7.1-13.8-5.1Z" fill="#2f2e41"/>
    <path id="Tracé_14899" data-name="Tracé 14899" d="M337.9,228h0a33.715,33.715,0,0,1-33.7-33.7V182.9A130.711,130.711,0,0,1,319.6,123a132.212,132.212,0,0,0-25.4,75.9v11.4A33.715,33.715,0,0,0,327.9,244h0a33.723,33.723,0,0,0,32.5-24.6A33.274,33.274,0,0,1,337.9,228Z" fill="#3f3d56"/>
    <path id="Tracé_14900" data-name="Tracé 14900" d="M428.8,139.1a64.029,64.029,0,0,1,55.7,89.4,63.984,63.984,0,0,0-97.4-83,63.247,63.247,0,0,0-10,16A63.44,63.44,0,0,1,428.8,139.1Z" fill="#3f3d56"/>
    <path id="Tracé_14901" data-name="Tracé 14901" d="M439.1,438h0a34.766,34.766,0,0,1-34.8-34.2c-.4-26.5-.6-59.1-.6-62.8a93.434,93.434,0,0,1,3.9-26.8h0a95.446,95.446,0,0,1,5.5-12.7,107.7,107.7,0,0,0-15.5,28.7h0a93.435,93.435,0,0,0-3.9,26.8c0,3.7.2,36.3.6,62.8A34.766,34.766,0,0,0,429.1,454h0a34.74,34.74,0,0,0,33.4-25A34.274,34.274,0,0,1,439.1,438Z" fill="#3f3d56"/>
    <path id="Tracé_14902" data-name="Tracé 14902" d="M126.5,582.6h12.3l5.8-47.3H126.5Z" fill="#ffb8b8"/>
    <path id="Tracé_14903" data-name="Tracé 14903" d="M162.4,594H123.9V579.1h23.6A14.81,14.81,0,0,1,162.4,594Z" fill="#2f2e41"/>
    <path id="Tracé_14904" data-name="Tracé 14904" d="M82.5,582.6H94.8l5.8-47.3H82.5Z" fill="#ffb8b8"/>
    <path id="Tracé_14905" data-name="Tracé 14905" d="M118.4,594H79.9V579.1h23.6A14.81,14.81,0,0,1,118.4,594Z" fill="#2f2e41"/>
    <path id="Tracé_14906" data-name="Tracé 14906" d="M93.3,568l-12-.6a4.555,4.555,0,0,1-4.4-4.9v-.1L91.2,404l65.9,17.8,6.4-1.7L143.6,560.4a4.6,4.6,0,0,1-4.4,3.9l-12.9.6a4.619,4.619,0,0,1-4.9-4.4v-.4l2.3-84.2a1.561,1.561,0,0,0-1.5-1.6,1.621,1.621,0,0,0-1.6,1.2L98,564.3a4.62,4.62,0,0,1-4.6,3.7Z" fill="#2f2e41"/>
    <circle id="Ellipse_2155" data-name="Ellipse 2155" cx="24.6" cy="24.6" r="24.6" transform="matrix(0.099, -0.995, 0.995, 0.099, 101.788, 271.86)" fill="#ffb8b8"/>
    <path id="Tracé_14907" data-name="Tracé 14907" d="M87.8,321.9l2.7,58.3,1,21.2a4.756,4.756,0,0,0,3.1,4.2l63.3,22.9a4.529,4.529,0,0,0,1.6.3,4.674,4.674,0,0,0,4.7-4.6V424l-2.6-104.8a37.1,37.1,0,0,0-30.7-35.7c-.6-.1-1.2-.2-1.9-.3a36.489,36.489,0,0,0-29.2,9.4,37.871,37.871,0,0,0-12,29.3Z" fill="#5de8c1"/>
    <path id="Tracé_14908" data-name="Tracé 14908" d="M188.2,416.9a10,10,0,0,1-6.6-12.6,9.055,9.055,0,0,1,1.3-2.6l-21.5-28.6,18.5-1.1,17.6,27.3a10.1,10.1,0,0,1-9.3,17.6Z" fill="#ffb8b8"/>
    <path id="Tracé_14909" data-name="Tracé 14909" d="M173.1,396.5a4.7,4.7,0,0,1-2.5-2.5l-32.4-77.1a12.462,12.462,0,1,1,23-9.6h0l32.4,77.1a4.629,4.629,0,0,1-2.5,6.1l-14.4,6a4.967,4.967,0,0,1-3.6,0Z" fill="#5de8c1"/>
    <path id="Tracé_14910" data-name="Tracé 14910" d="M120.8,393.8l31.1-59.5a4.926,4.926,0,0,1,6.6-2.1l45.1,23.6a4.926,4.926,0,0,1,2.1,6.6l-31.1,59.5A4.926,4.926,0,0,1,168,424l-45.1-23.6A4.982,4.982,0,0,1,120.8,393.8Z" fill="#3f3d56"/>
    <path id="Tracé_14911" data-name="Tracé 14911" d="M141.7,366.6a10.184,10.184,0,0,0-13-5.9,9.386,9.386,0,0,0-2.6,1.4L96.3,342.3l-.1,18.6,28.3,15.9a10.229,10.229,0,0,0,14.3,1,9.986,9.986,0,0,0,2.9-11.2Z" fill="#ffb8b8"/>
    <path id="Tracé_14912" data-name="Tracé 14912" d="M104,370.7,79.7,351.4a17.113,17.113,0,0,1-10.8-21.7,17.831,17.831,0,0,1,3-5.4l22.1-29a10.087,10.087,0,0,1,17.1,10.3L93.6,334.2l25.7,12.2a4.677,4.677,0,0,1,2.2,6.2c-.1.2-.2.3-.3.5l-10.4,16.4a4.718,4.718,0,0,1-3.2,2.1h-.1A3.951,3.951,0,0,1,104,370.7Z" fill="#5de8c1"/>
    <path id="Tracé_14913" data-name="Tracé 14913" d="M110.2,266.2a2.119,2.119,0,0,1,1.3-2.7.9.9,0,0,1,.5-.1,5.311,5.311,0,0,1,3.5,1.7,12.99,12.99,0,0,0,3.1,2.6,2.715,2.715,0,0,0,3.5-.6c.6-1.1.2-2.5-.2-3.8a36.512,36.512,0,0,1-1.6-9.8c-.1-3.7.4-7.6,2.5-10.4,2.6-3.7,7.4-5.1,11.8-5s8.9,1.5,13.3,2.4c1.5.3,3.3.5,4.4-.7,1.1-1.3.7-3.3.2-5-1.2-4.4-2.5-9-5.3-12.6a19.018,19.018,0,0,0-12.1-6.8,29.553,29.553,0,0,0-13.5,1.5,36.154,36.154,0,0,0-17.7,12.3,29.717,29.717,0,0,0-5.6,21.6,26.641,26.641,0,0,0,9.9,16.9Z" fill="#2f2e41"/>
    <path id="Tracé_14914" data-name="Tracé 14914" d="M421.3,582.8a45.964,45.964,0,0,1-23.8-60.5,49.839,49.839,0,0,1,6.7-11,46.014,46.014,0,1,0,54.3,74.3,47.348,47.348,0,0,0,8.3-7.8A46.176,46.176,0,0,1,421.3,582.8Z" fill="#3f3d56"/>
  </g>
</svg>
